<svg class="main-svg" xmlns="http://www.w3.org/2000/svg" xmlns:xlink="http://www.w3.org/1999/xlink" width="700" height="500" style="" viewBox="0 0 700 500"><rect x="0" y="0" width="700" height="500" style="fill: rgb(255, 255, 255); fill-opacity: 1;"/><defs id="defs-bc894d"><g class="clips"/><g class="gradients"/><g class="patterns"/></defs><g class="bglayer"/><g class="layer-below"><g class="imagelayer"/><g class="shapelayer"/></g><g class="cartesianlayer"/><g class="polarlayer"/><g class="smithlayer"/><g class="ternarylayer"/><g class="geolayer"/><g class="funnelarealayer"/><g class="pielayer"/><g class="iciclelayer"/><g class="treemaplayer"/><g class="sunburstlayer"/><g class="glimages"/><g class="sankey" transform="translate(100,100)matrix(1 0 0 1 0 0)" style="box-sizing: content-box; position: absolute; left: 0px; shape-rendering: geometricprecision; pointer-events: none;"><g class="sankey-links" style="fill: none;"><path class="sankey-link" d="M20,157.58010160235756C250,157.58010160235756 250,60.941049255616534 480,60.941049255616534L480,61.360979419121975C250,61.360979419121975 250,158.000031765863 20,158.000031765863Z" style="stroke: rgb(128, 128, 128); stroke-opacity: 0.5; fill: rgb(128, 128, 128); fill-opacity: 0.5; stroke-width: 1; opacity: 1;"/><path class="sankey-link" d="M20,168.76122084923927C250,168.76122084923927 250,191.47378612074107 480,191.47378612074107L480,193.0565016305515C250,193.0565016305515 250,170.3439363590497 20,170.3439363590497Z" style="stroke: rgb(68, 68, 68); stroke-opacity: 1; fill: rgb(128, 128, 128); fill-opacity: 0.5; stroke-width: 0; opacity: 1;"/><path class="sankey-link" d="M20,168.1701011457305C250,168.1701011457305 250,174.34701859796604 480,174.34701859796604L480,174.9381383014748C250,174.9381383014748 250,168.76122084923927 20,168.76122084923927Z" style="stroke: rgb(128, 128, 128); stroke-opacity: 0.5; fill: rgb(128, 128, 128); fill-opacity: 0.5; stroke-width: 1; opacity: 1;"/><path class="sankey-link" d="M20,167.81016100559606C250,167.81016100559606 250,158.69802441315446 480,158.69802441315446L480,159.05796455328894C250,159.05796455328894 250,168.17010114573054 20,168.17010114573054Z" style="stroke: rgb(128, 128, 128); stroke-opacity: 0.5; fill: rgb(128, 128, 128); fill-opacity: 0.5; stroke-width: 1; opacity: 1;"/><path class="sankey-link" d="M20,158.00003176586299C250,158.00003176586299 250,101.41834620628511 480,101.41834620628511L480,111.22847544601818C250,111.22847544601818 250,167.8101610055961 20,167.8101610055961Z" style="stroke: rgb(68, 68, 68); stroke-opacity: 1; fill: rgb(184, 199, 148); fill-opacity: 0.8; stroke-width: 0; opacity: 1;"/><path class="sankey-link" d="M20,18.08744046178619C250,18.08744046178619 250,-1.7763568394002505e-13 480,-1.7763568394002505e-13L480,7.848885688054266C250,7.848885688054266 250,25.936326149840635 20,25.936326149840635Z" style="stroke: rgb(68, 68, 68); stroke-opacity: 1; fill: rgb(128, 128, 128); fill-opacity: 0.5; stroke-width: 0; opacity: 1;"/><path class="sankey-link" d="M20,25.93632614984064C250,25.93632614984064 250,22.84888568805428 480,22.84888568805428L480,45.36279463542125C250,45.36279463542125 250,48.45023509720761 20,48.45023509720761Z" style="stroke: rgb(68, 68, 68); stroke-opacity: 1; fill: rgb(128, 128, 128); fill-opacity: 0.5; stroke-width: 0; opacity: 1;"/><path class="sankey-link" d="M20,48.45023509720761C250,48.45023509720761 250,76.36097941912202 480,76.36097941912202L480,76.98062828923638C250,76.98062828923638 250,49.069883967321985 20,49.069883967321985Z" style="stroke: rgb(184, 199, 148); stroke-opacity: 0.8; fill: rgb(184, 199, 148); fill-opacity: 0.8; stroke-width: 1; opacity: 1;"/><path class="sankey-link" d="M20,270.17692087062716C250,270.17692087062716 250,292.5334501225816 480,292.5334501225816L480,299.9999999999998C250,299.9999999999998 250,277.64347074804533 20,277.64347074804533Z" style="stroke: rgb(68, 68, 68); stroke-opacity: 1; fill: rgb(128, 128, 128); fill-opacity: 0.5; stroke-width: 0; opacity: 1;"/><path class="sankey-link" d="M20,263.5246528062826C250,263.5246528062826 250,176.3634045323889 480,176.3634045323889L480,176.47227344485728C250,176.47227344485728 250,263.6335217187509 20,263.6335217187509Z" style="stroke: rgb(128, 128, 128); stroke-opacity: 0.5; fill: rgb(128, 128, 128); fill-opacity: 0.5; stroke-width: 1; opacity: 1;"/><path class="sankey-link" d="M20,263.63352171875096C250,263.63352171875096 250,243.02364491435458 480,243.02364491435458L480,244.27553231350754C250,244.27553231350754 250,264.885409117904 20,264.885409117904Z" style="stroke: rgb(68, 68, 68); stroke-opacity: 1; fill: rgb(128, 128, 128); fill-opacity: 0.5; stroke-width: 0; opacity: 1;"/><path class="sankey-link" d="M20,264.8854091179039C250,264.8854091179039 250,264.7634860295301 480,264.7634860295301L480,270.0549977822533C250,270.0549977822533 250,270.1769208706271 20,270.1769208706271Z" style="stroke: rgb(68, 68, 68); stroke-opacity: 1; fill: rgb(128, 128, 128); fill-opacity: 0.5; stroke-width: 0; opacity: 1;"/><path class="sankey-link" d="M20,262.7103709931176C250,262.7103709931176 250,121.64664261121627 480,121.64664261121627L480,122.46092442438123C250,122.46092442438123 250,263.5246528062825 20,263.5246528062825Z" style="stroke: rgb(184, 199, 148); stroke-opacity: 0.8; fill: rgb(184, 199, 148); fill-opacity: 0.8; stroke-width: 1; opacity: 1;"/><path class="sankey-link" d="M20,64.06988396732197C250,64.06988396732197 250,45.36279463542125 480,45.36279463542125L480,60.941049255616534C250,60.941049255616534 250,79.64813858751725 20,79.64813858751725Z" style="stroke: rgb(68, 68, 68); stroke-opacity: 1; fill: rgb(128, 128, 128); fill-opacity: 0.5; stroke-width: 0; opacity: 1;"/><path class="sankey-link" d="M20,83.959164217228C250,83.959164217228 250,191.47227344485728 480,191.47227344485728L480,191.47378612074104C250,191.47378612074104 250,83.96067689311178 20,83.96067689311178Z" style="stroke: rgb(128, 128, 128); stroke-opacity: 0.5; fill: rgb(128, 128, 128); fill-opacity: 0.5; stroke-width: 1; opacity: 1;"/><path class="sankey-link" d="M20,83.96067689311177C250,83.96067689311177 250,237.12035901620897 480,237.12035901620897L480,237.33053979392645C250,237.33053979392645 250,84.17085767082922 20,84.17085767082922Z" style="stroke: rgb(128, 128, 128); stroke-opacity: 0.5; fill: rgb(128, 128, 128); fill-opacity: 0.5; stroke-width: 1; opacity: 1;"/><path class="sankey-link" d="M20,79.64813858751725C250,79.64813858751725 250,76.98062828923639 480,76.98062828923639L480,81.29165391894713C250,81.29165391894713 250,83.959164217228 20,83.959164217228Z" style="stroke: rgb(68, 68, 68); stroke-opacity: 1; fill: rgb(184, 199, 148); fill-opacity: 0.8; stroke-width: 0; opacity: 1;"/><path class="sankey-link" d="M20,219.62092684212135C250,219.62092684212135 250,285.05499778225334 480,285.05499778225334L480,289.7279542172019C250,289.7279542172019 250,224.2938832770699 20,224.2938832770699Z" style="stroke: rgb(68, 68, 68); stroke-opacity: 1; fill: rgb(128, 128, 128); fill-opacity: 0.5; stroke-width: 0; opacity: 1;"/><path class="sankey-link" d="M20,193.52123459344088C250,193.52123459344088 250,142.57674791087317 480,142.57674791087317L480,143.69802441315449C250,143.69802441315449 250,194.6425110957222 20,194.6425110957222Z" style="stroke: rgb(68, 68, 68); stroke-opacity: 1; fill: rgb(128, 128, 128); fill-opacity: 0.5; stroke-width: 0; opacity: 1;"/><path class="sankey-link" d="M20,209.13919666129394C250,209.13919666129394 250,221.12792096520914 480,221.12792096520914L480,222.12035901620894C250,222.12035901620894 250,210.13163471229373 20,210.13163471229373Z" style="stroke: rgb(128, 128, 128); stroke-opacity: 0.5; fill: rgb(128, 128, 128); fill-opacity: 0.5; stroke-width: 1; opacity: 1;"/><path class="sankey-link" d="M20,196.06777732663627C250,196.06777732663627 250,193.0565016305515 480,193.0565016305515L480,206.12792096520917C250,206.12792096520917 250,209.13919666129394 20,209.13919666129394Z" style="stroke: rgb(68, 68, 68); stroke-opacity: 1; fill: rgb(128, 128, 128); fill-opacity: 0.5; stroke-width: 0; opacity: 1;"/><path class="sankey-link" d="M20,194.64251109572217C250,194.64251109572217 250,174.9381383014748 480,174.9381383014748L480,176.36340453238887C250,176.36340453238887 250,196.06777732663625 20,196.06777732663625Z" style="stroke: rgb(68, 68, 68); stroke-opacity: 1; fill: rgb(128, 128, 128); fill-opacity: 0.5; stroke-width: 0; opacity: 1;"/><path class="sankey-link" d="M20,210.13163471229376C250,210.13163471229376 250,237.45392642020914 480,237.45392642020914L480,241.46394795002692C250,241.46394795002692 250,214.14165624211154 20,214.14165624211154Z" style="stroke: rgb(68, 68, 68); stroke-opacity: 1; fill: rgb(128, 128, 128); fill-opacity: 0.5; stroke-width: 0; opacity: 1;"/><path class="sankey-link" d="M20,214.14165624211154C250,214.14165624211154 250,259.27553231350754 480,259.27553231350754L480,264.7548029135174C250,264.7548029135174 250,219.62092684212138 20,219.62092684212138Z" style="stroke: rgb(68, 68, 68); stroke-opacity: 1; fill: rgb(128, 128, 128); fill-opacity: 0.5; stroke-width: 0; opacity: 1;"/><path class="sankey-link" d="M20,187.14567915857046C250,187.14567915857046 250,111.22847544601818 480,111.22847544601818L480,117.6040308808886C250,117.6040308808886 250,193.52123459344088 20,193.52123459344088Z" style="stroke: rgb(68, 68, 68); stroke-opacity: 1; fill: rgb(184, 199, 148); fill-opacity: 0.8; stroke-width: 0; opacity: 1;"/><path class="sankey-link" d="M20,244.90487508773796C250,244.90487508773796 250,289.7279542172019 480,289.7279542172019L480,292.53345012258166C250,292.53345012258166 250,247.71037099311766 20,247.71037099311766Z" style="stroke: rgb(68, 68, 68); stroke-opacity: 1; fill: rgb(128, 128, 128); fill-opacity: 0.5; stroke-width: 0; opacity: 1;"/><path class="sankey-link" d="M20,243.3364950073976C250,243.3364950073976 250,241.46394795002692 480,241.46394795002692L480,243.02364491435458C250,243.02364491435458 250,244.89619197172524 20,244.89619197172524Z" style="stroke: rgb(68, 68, 68); stroke-opacity: 1; fill: rgb(128, 128, 128); fill-opacity: 0.5; stroke-width: 0; opacity: 1;"/><path class="sankey-link" d="M20,244.89619197172524C250,244.89619197172524 250,264.7548029135174 480,264.7548029135174L480,264.76348602953016C250,264.76348602953016 250,244.90487508773796 20,244.90487508773796Z" style="stroke: rgb(128, 128, 128); stroke-opacity: 0.5; fill: rgb(128, 128, 128); fill-opacity: 0.5; stroke-width: 1; opacity: 1;"/><path class="sankey-link" d="M20,239.29388327706994C250,239.29388327706994 250,117.60403088088862 480,117.60403088088862L480,121.64664261121627C250,121.64664261121627 250,243.33649500739756 20,243.33649500739756Z" style="stroke: rgb(68, 68, 68); stroke-opacity: 1; fill: rgb(184, 199, 148); fill-opacity: 0.8; stroke-width: 0; opacity: 1;"/><path class="sankey-link" d="M20,108.2201665369559C250,108.2201665369559 250,174.05796455328888 480,174.05796455328888L480,174.34701859796607C250,174.34701859796607 250,108.50922058163306 20,108.50922058163306Z" style="stroke: rgb(128, 128, 128); stroke-opacity: 0.5; fill: rgb(128, 128, 128); fill-opacity: 0.5; stroke-width: 1; opacity: 1;"/><path class="sankey-link" d="M20,108.50922058163307C250,108.50922058163307 250,237.33053979392642 480,237.33053979392642L480,237.45392642020917C250,237.45392642020917 250,108.6326072079158 20,108.6326072079158Z" style="stroke: rgb(128, 128, 128); stroke-opacity: 0.5; fill: rgb(128, 128, 128); fill-opacity: 0.5; stroke-width: 1; opacity: 1;"/><path class="sankey-link" d="M20,101.9251451575677C250,101.9251451575677 250,81.29165391894713 480,81.29165391894713L480,87.58667529833534C250,87.58667529833534 250,108.2201665369559 20,108.2201665369559Z" style="stroke: rgb(68, 68, 68); stroke-opacity: 1; fill: rgb(184, 199, 148); fill-opacity: 0.8; stroke-width: 0; opacity: 1;"/><path class="sankey-link" d="M20,137.46427811586557C250,137.46427811586557 250,137.4609244243812 480,137.4609244243812L480,142.57674791087314C250,142.57674791087314 250,142.5801016023575 20,142.5801016023575Z" style="stroke: rgb(68, 68, 68); stroke-opacity: 1; fill: rgb(128, 128, 128); fill-opacity: 0.5; stroke-width: 0; opacity: 1;"/><path class="sankey-link" d="M20,123.63260720791583C250,123.63260720791583 250,87.58667529833534 480,87.58667529833534L480,101.4183462062851C250,101.4183462062851 250,137.4642781158656 20,137.4642781158656Z" style="stroke: rgb(68, 68, 68); stroke-opacity: 1; fill: rgb(184, 199, 148); fill-opacity: 0.8; stroke-width: 0; opacity: 1;"/></g><g class="sankey-node-set" style="cursor: move;"><g class="sankey-node" transform="translate(0.000,157.580)" style="opacity: 1;"><rect class="node-rect" width="20" height="12.763834756692205" style="stroke-width: 0.5; stroke: rgb(0, 0, 0); stroke-opacity: 1; fill: rgb(231, 207, 43); fill-opacity: 0.8;"/><text class="node-label" data-notex="1" x="0" y="0" text-anchor="start" transform="translate(23.25,11.281917378346101)" style="cursor: default; font-family: 'Arial Black'; font-size: 14px; fill: rgb(0, 0, 0); fill-opacity: 1; white-space: pre; text-shadow: white 1px 1px 1px, white -1px -1px 1px, white 1px -1px 1px, white -1px 1px 1px;">Rice husk</text></g><g class="sankey-node" transform="translate(0.000,18.087)" style="opacity: 1;"><rect class="node-rect" width="20" height="30.98244350553578" style="stroke-width: 0.5; stroke: rgb(0, 0, 0); stroke-opacity: 1; fill: rgb(214, 214, 158); fill-opacity: 0.8;"/><text class="node-label" data-notex="1" x="0" y="0" text-anchor="start" transform="translate(23.25,20.39122175276789)" style="cursor: default; font-family: 'Arial Black'; font-size: 14px; fill: rgb(0, 0, 0); fill-opacity: 1; white-space: pre; text-shadow: white 1px 1px 1px, white -1px -1px 1px, white 1px -1px 1px, white -1px 1px 1px;">Rice straw</text></g><g class="sankey-node" transform="translate(0.000,262.710)" style="opacity: 1;"><rect class="node-rect" width="20" height="14.933099754927753" style="stroke-width: 0.5; stroke: rgb(0, 0, 0); stroke-opacity: 1; fill: rgb(215, 3, 1); fill-opacity: 0.8;"/><text class="node-label" data-notex="1" x="0" y="0" text-anchor="start" transform="translate(23.25,12.366549877463875)" style="cursor: default; font-family: 'Arial Black'; font-size: 14px; fill: rgb(0, 0, 0); fill-opacity: 1; white-space: pre; text-shadow: white 1px 1px 1px, white -1px -1px 1px, white 1px -1px 1px, white -1px 1px 1px;">PKS</text></g><g class="sankey-node" transform="translate(0.000,64.070)" style="opacity: 1;"><rect class="node-rect" width="20" height="20.10097370350735" style="stroke-width: 0.5; stroke: rgb(0, 0, 0); stroke-opacity: 1; fill: rgb(230, 144, 2); fill-opacity: 0.8;"/><text class="node-label" data-notex="1" x="0" y="0" text-anchor="start" transform="translate(23.25,14.950486851753674)" style="cursor: default; font-family: 'Arial Black'; font-size: 14px; fill: rgb(0, 0, 0); fill-opacity: 1; white-space: pre; text-shadow: white 1px 1px 1px, white -1px -1px 1px, white 1px -1px 1px, white -1px 1px 1px;">EFB</text></g><g class="sankey-node" transform="translate(0.000,187.146)" style="opacity: 1;"><rect class="node-rect" width="20" height="37.14820411849948" style="stroke-width: 0.5; stroke: rgb(0, 0, 0); stroke-opacity: 1; fill: rgb(128, 162, 3); fill-opacity: 0.8;"/><text class="node-label" data-notex="1" x="0" y="0" text-anchor="start" transform="translate(23.25,23.474102059249738)" style="cursor: default; font-family: 'Arial Black'; font-size: 14px; fill: rgb(0, 0, 0); fill-opacity: 1; white-space: pre; text-shadow: white 1px 1px 1px, white -1px -1px 1px, white 1px -1px 1px, white -1px 1px 1px;">Wood waste</text></g><g class="sankey-node" transform="translate(0.000,239.294)" style="opacity: 1;"><rect class="node-rect" width="20" height="8.41648771604764" style="stroke-width: 0.5; stroke: rgb(0, 0, 0); stroke-opacity: 1; fill: rgb(38, 88, 92); fill-opacity: 0.8;"/><text class="node-label" data-notex="1" x="0" y="0" text-anchor="start" transform="translate(23.25,9.108243858023819)" style="cursor: default; font-family: 'Arial Black'; font-size: 14px; fill: rgb(0, 0, 0); fill-opacity: 1; white-space: pre; text-shadow: white 1px 1px 1px, white -1px -1px 1px, white 1px -1px 1px, white -1px 1px 1px;">Bagasse</text></g><g class="sankey-node" transform="translate(0.000,101.925)" style="opacity: 1;"><rect class="node-rect" width="20" height="6.707462050348113" style="stroke-width: 0.5; stroke: rgb(0, 0, 0); stroke-opacity: 1; fill: rgb(157, 157, 156); fill-opacity: 0.8;"/><text class="node-label" data-notex="1" x="0" y="0" text-anchor="start" transform="translate(23.25,8.253731025174055)" style="cursor: default; font-family: 'Arial Black'; font-size: 14px; fill: rgb(0, 0, 0); fill-opacity: 1; white-space: pre; text-shadow: white 1px 1px 1px, white -1px -1px 1px, white 1px -1px 1px, white -1px 1px 1px;">MSW</text></g><g class="sankey-node" transform="translate(0.000,123.633)" style="opacity: 1;"><rect class="node-rect" width="20" height="18.947494394441748" style="stroke-width: 0.5; stroke: rgb(0, 0, 0); stroke-opacity: 1; fill: rgb(112, 61, 1); fill-opacity: 0.8;"/><text class="node-label" data-notex="1" x="0" y="0" text-anchor="start" transform="translate(23.25,14.373747197220872)" style="cursor: default; font-family: 'Arial Black'; font-size: 14px; fill: rgb(0, 0, 0); fill-opacity: 1; white-space: pre; text-shadow: white 1px 1px 1px, white -1px -1px 1px, white 1px -1px 1px, white -1px 1px 1px;">Rubber</text></g><g class="sankey-node" transform="translate(480.000,22.849)" style="opacity: 1;"><rect class="node-rect" width="20" height="38.512093731067736" style="stroke-width: 0.5; stroke: rgb(0, 0, 0); stroke-opacity: 1; fill: rgb(0, 0, 0); fill-opacity: 1;"/><text class="node-label" data-notex="1" x="0" y="0" text-anchor="end" transform="translate(-3.25,24.156046865533867)" style="cursor: default; font-family: 'Arial Black'; font-size: 14px; fill: rgb(0, 0, 0); fill-opacity: 1; white-space: pre; text-shadow: white 1px 1px 1px, white -1px -1px 1px, white 1px -1px 1px, white -1px 1px 1px;">Fertilizer</text></g><g class="sankey-node" transform="translate(480.000,191.472)" style="opacity: 1;"><rect class="node-rect" width="20" height="14.655647520351863" style="stroke-width: 0.5; stroke: rgb(0, 0, 0); stroke-opacity: 1; fill: rgb(0, 0, 0); fill-opacity: 1;"/><text class="node-label" data-notex="1" x="0" y="0" text-anchor="end" transform="translate(-3.25,12.22782376017593)" style="cursor: default; font-family: 'Arial Black'; font-size: 14px; fill: rgb(0, 0, 0); fill-opacity: 1; white-space: pre; text-shadow: white 1px 1px 1px, white -1px -1px 1px, white 1px -1px 1px, white -1px 1px 1px;">Industrial fuel</text></g><g class="sankey-node" transform="translate(480.000,174.058)" style="opacity: 1;"><rect class="node-rect" width="20" height="2.414308891568396" style="stroke-width: 0.5; stroke: rgb(0, 0, 0); stroke-opacity: 1; fill: rgb(0, 0, 0); fill-opacity: 1;"/><text class="node-label" data-notex="1" x="0" y="0" text-anchor="end" transform="translate(-3.25,6.1071544457841975)" style="cursor: default; font-family: 'Arial Black'; font-size: 14px; fill: rgb(0, 0, 0); fill-opacity: 1; white-space: pre; text-shadow: white 1px 1px 1px, white -1px -1px 1px, white 1px -1px 1px, white -1px 1px 1px;">Existing co-firing</text></g><g class="sankey-node" transform="translate(480.000,158.698)" style="opacity: 1;"><rect class="node-rect" width="20" height="0.5" style="stroke-width: 0.5; stroke: rgb(0, 0, 0); stroke-opacity: 1; fill: rgb(0, 0, 0); fill-opacity: 1;"/><text class="node-label" data-notex="1" x="0" y="0" text-anchor="end" transform="translate(-3.25,5.1499999999999995)" style="cursor: default; font-family: 'Arial Black'; font-size: 14px; fill: rgb(0, 0, 0); fill-opacity: 1; white-space: pre; text-shadow: white 1px 1px 1px, white -1px -1px 1px, white 1px -1px 1px, white -1px 1px 1px;">Misc.</text></g><g class="sankey-node" transform="translate(480.000,76.361)" style="opacity: 1;"><rect class="node-rect" width="20" height="46.09994500525919" style="stroke-width: 0.5; stroke: rgb(0, 0, 0); stroke-opacity: 1; fill: rgb(0, 0, 0); fill-opacity: 1;"/><text class="node-label" data-notex="1" x="0" y="0" text-anchor="end" transform="translate(-3.25,27.949972502629592)" style="cursor: default; font-family: 'Arial Black'; font-size: 14px; fill: rgb(0, 0, 0); fill-opacity: 1; white-space: pre; text-shadow: white 1px 1px 1px, white -1px -1px 1px, white 1px -1px 1px, white -1px 1px 1px;">Total Remaining</text></g><g class="sankey-node" transform="translate(480.000,-0.000)" style="opacity: 1;"><rect class="node-rect" width="20" height="7.848885688054462" style="stroke-width: 0.5; stroke: rgb(0, 0, 0); stroke-opacity: 1; fill: rgb(0, 0, 0); fill-opacity: 1;"/><text class="node-label" data-notex="1" x="0" y="0" text-anchor="end" transform="translate(-3.25,8.824442844027232)" style="cursor: default; font-family: 'Arial Black'; font-size: 14px; fill: rgb(0, 0, 0); fill-opacity: 1; white-space: pre; text-shadow: white 1px 1px 1px, white -1px -1px 1px, white 1px -1px 1px, white -1px 1px 1px;">Animal feed</text></g><g class="sankey-node" transform="translate(480.000,285.055)" style="opacity: 1;"><rect class="node-rect" width="20" height="14.945002217746662" style="stroke-width: 0.5; stroke: rgb(0, 0, 0); stroke-opacity: 1; fill: rgb(0, 0, 0); fill-opacity: 1;"/><text class="node-label" data-notex="1" x="0" y="0" text-anchor="end" transform="translate(-3.25,12.37250110887333)" style="cursor: default; font-family: 'Arial Black'; font-size: 14px; fill: rgb(0, 0, 0); fill-opacity: 1; white-space: pre; text-shadow: white 1px 1px 1px, white -1px -1px 1px, white 1px -1px 1px, white -1px 1px 1px;">Processing mills</text></g><g class="sankey-node" transform="translate(480.000,237.120)" style="opacity: 1;"><rect class="node-rect" width="20" height="7.155173297298575" style="stroke-width: 0.5; stroke: rgb(0, 0, 0); stroke-opacity: 1; fill: rgb(0, 0, 0); fill-opacity: 1;"/><text class="node-label" data-notex="1" x="0" y="0" text-anchor="end" transform="translate(-3.25,8.477586648649286)" style="cursor: default; font-family: 'Arial Black'; font-size: 14px; fill: rgb(0, 0, 0); fill-opacity: 1; white-space: pre; text-shadow: white 1px 1px 1px, white -1px -1px 1px, white 1px -1px 1px, white -1px 1px 1px;">Biomass power plants </text></g><g class="sankey-node" transform="translate(480.000,259.276)" style="opacity: 1;"><rect class="node-rect" width="20" height="10.779465468745798" style="stroke-width: 0.5; stroke: rgb(0, 0, 0); stroke-opacity: 1; fill: rgb(0, 0, 0); fill-opacity: 1;"/><text class="node-label" data-notex="1" x="0" y="0" text-anchor="end" transform="translate(-3.25,10.289732734372897)" style="cursor: default; font-family: 'Arial Black'; font-size: 14px; fill: rgb(0, 0, 0); fill-opacity: 1; white-space: pre; text-shadow: white 1px 1px 1px, white -1px -1px 1px, white 1px -1px 1px, white -1px 1px 1px;">Exports</text></g><g class="sankey-node" transform="translate(480.000,137.461)" style="opacity: 1;"><rect class="node-rect" width="20" height="6.237099988773252" style="stroke-width: 0.5; stroke: rgb(0, 0, 0); stroke-opacity: 1; fill: rgb(0, 0, 0); fill-opacity: 1;"/><text class="node-label" data-notex="1" x="0" y="0" text-anchor="end" transform="translate(-3.25,8.018549994386625)" style="cursor: default; font-family: 'Arial Black'; font-size: 14px; fill: rgb(0, 0, 0); fill-opacity: 1; white-space: pre; text-shadow: white 1px 1px 1px, white -1px -1px 1px, white 1px -1px 1px, white -1px 1px 1px;">Lumber industry</text></g><g class="sankey-node" transform="translate(480.000,221.128)" style="opacity: 1;"><rect class="node-rect" width="20" height="0.9924380509997945" style="stroke-width: 0.5; stroke: rgb(0, 0, 0); stroke-opacity: 1; fill: rgb(0, 0, 0); fill-opacity: 1;"/><text class="node-label" data-notex="1" x="0" y="0" text-anchor="end" transform="translate(-3.25,5.396219025499897)" style="cursor: default; font-family: 'Arial Black'; font-size: 14px; fill: rgb(0, 0, 0); fill-opacity: 1; white-space: pre; text-shadow: white 1px 1px 1px, white -1px -1px 1px, white 1px -1px 1px, white -1px 1px 1px;">Household fuel</text></g></g></g><defs id="topdefs-bc894d"><g class="clips"/></defs><g class="layer-above"><g class="imagelayer"/><g class="shapelayer"/></g><g class="infolayer"><g class="g-gtitle"><text class="gtitle" x="35" y="50" text-anchor="start" dy="0em" style="font-family: 'Arial Black'; font-size: 20px; fill: rgb(0, 0, 0); opacity: 1; font-weight: normal; white-space: pre;">Cofiring Feedstocks to Total Remaining</text></g><g class="first-render"/></g></svg>